<?xml version="1.0" standalone="no"?><!DOCTYPE svg PUBLIC "-//W3C//DTD SVG 1.1//EN" "http://www.w3.org/Graphics/SVG/1.1/DTD/svg11.dtd"><svg t="1673015615898" class="icon" viewBox="0 0 1024 1024" version="1.1" xmlns="http://www.w3.org/2000/svg" p-id="3672" xmlns:xlink="http://www.w3.org/1999/xlink" width="200" height="200"><path d="M864.4 383.8s28.6 65.9-8.9 95.6c-47.2 37.4-87.2 43.7-87.2 43.7s114.9 19.2 135.2-21-39.1-118.3-39.1-118.3zM772.2 693.4S753 828.3 714.4 865.7c-44.4 43-136 47.4-136 47.4s143.3 40.6 179.5-14.3c36.1-54.9 14.3-205.4 14.3-205.4z" fill="#1296db" p-id="3673"></path><path d="M738.1 915.3c-2.1 0-4.1-0.8-5.7-2.4l-23-22.9c-3.1-3.1-3.1-8.2 0-11.4 3.1-3.1 8.2-3.1 11.4 0l22.9 22.9c3.1 3.1 3.1 8.2 0 11.4-1.5 1.6-3.6 2.4-5.6 2.4zM704.6 933.6c-2.1 0-4.1-0.8-5.7-2.4l-25-25c-3.1-3.1-3.1-8.2 0-11.4 3.1-3.1 8.2-3.1 11.4 0l25 25c3.1 3.1 3.1 8.2 0 11.4-1.6 1.6-3.7 2.4-5.7 2.4zM660.6 937.5c-2.1 0-4.1-0.8-5.7-2.4l-20.2-20.2c-3.1-3.1-3.1-8.2 0-11.4 3.1-3.1 8.2-3.1 11.4 0l20.2 20.2c3.1 3.1 3.1 8.2 0 11.4-1.6 1.6-3.6 2.4-5.7 2.4zM765.9 890.5c-2.1 0-4.1-0.8-5.7-2.4l-24.6-24.6c-3.1-3.1-3.1-8.2 0-11.4 3.1-3.1 8.2-3.1 11.4 0l24.6 24.6c3.1 3.1 3.1 8.2 0 11.4-1.6 1.6-3.6 2.4-5.7 2.4zM862 537.7c-2.1 0-4.1-0.8-5.7-2.4l-20.1-20.1c-3.1-3.1-3.1-8.2 0-11.4 3.1-3.1 8.2-3.1 11.4 0l20.1 20.1c3.1 3.1 3.1 8.2 0 11.4-1.6 1.6-3.7 2.4-5.7 2.4zM821.6 540.1c-2.1 0-4.1-0.8-5.7-2.4l-13.4-13.4c-3.1-3.1-3.1-8.2 0-11.4 3.1-3.1 8.2-3.1 11.4 0l13.4 13.4c3.1 3.1 3.1 8.2 0 11.4-1.6 1.6-3.6 2.4-5.7 2.4zM894.8 523.3c-2.1 0-4.1-0.8-5.7-2.4l-24.6-24.6c-3.1-3.1-3.1-8.2 0-11.4 3.1-3.1 8.2-3.1 11.4 0l24.6 24.6c3.1 3.1 3.1 8.2 0 11.4-1.6 1.6-3.6 2.4-5.7 2.4zM913.7 497.3c-2.1 0-4.1-0.8-5.7-2.4l-24.2-24.2c-3.1-3.1-3.1-8.2 0-11.4 3.1-3.1 8.2-3.1 11.4 0l24.2 24.2c3.1 3.1 3.1 8.2 0 11.4-1.6 1.6-3.6 2.4-5.7 2.4zM777.2 852.1c-2.1 0-4.1-0.8-5.7-2.4L748.8 827c-3.1-3.1-3.1-8.2 0-11.4 3.1-3.1 8.2-3.1 11.4 0l22.7 22.7c3.1 3.1 3.1 8.2 0 11.4-1.6 1.6-3.7 2.4-5.7 2.4zM782.7 813.5c-2.1 0-4.1-0.8-5.7-2.4l-20.9-20.9c-3.1-3.1-3.1-8.2 0-11.4 3.1-3.1 8.2-3.1 11.4 0l20.9 20.9c3.1 3.1 3.1 8.2 0 11.4-1.6 1.6-3.7 2.4-5.7 2.4z" fill="#1296db" p-id="3674"></path><path d="M498 107.3c13 0 25.9 3.3 36.1 10 181.7 119.3 375.6 309.8 369.2 366.4-3.7 32.6-61.1 38.5-102.2 38.5-10.7 0-20.3-0.4-27.5-0.8h-0.7c-7 0-12.5 5.9-12 13 4.5 61.4 20.4 305.6-9.7 350.8-16.8 25.2-55.4 31.7-90.5 31.7-37 0-70.2-7.2-70.2-7.2s11.3-147.6 0-171.1c-5-10.4-42-15.6-77.6-15.6-33 0-64.7 4.5-68.6 13.4-8.8 20.3-2.2 172.5-2.2 172.5s-10.4 1.2-27.5 1.2c-26.9 0-70.4-3-114.9-18.4-65.7-22.8-41-277.7-32.4-351.1 1.1-9.6-6.4-17.8-15.8-17.8h-1.1c-6.8 0.5-15 0.8-24 0.8-24.1 0-53.9-2.6-77-13-26.7-11.9-37.5-45.9-20.9-69.9 68.3-98.6 244-250.9 326.5-318.9 11.4-9.7 27.3-14.5 43-14.5m0-24.1c-21.9 0-43.2 7.2-58.4 19.8-41.5 34.2-252.5 210.5-330.9 323.8-11.7 16.9-15.2 38.3-9.5 58.6 5.9 21.1 20.6 38.2 40.4 47.1 22.4 10 51.6 15.1 86.9 15.1 5.2 0 10.5-0.1 15.9-0.3-4.8 43.4-11.6 117.9-10.7 188.1 1.4 108.4 20.5 165.2 60.3 179 47.1 16.3 92.8 19.8 122.8 19.8 18.2 0 29.7-1.3 30.2-1.3 12.6-1.4 21.9-12.3 21.3-25-2.7-60.6-3.4-132.4-0.6-156.5 7.8-2 23.6-4.3 47.3-4.3 27.4 0 47.9 3.2 56.7 6 3.7 22.5 1.5 94.7-3.1 154.8-0.9 12 7.2 22.8 18.9 25.4 1.5 0.3 36.1 7.7 75.2 7.7 54.6 0 91.8-14.3 110.6-42.4 20.8-31.1 22.6-114.1 21.9-182.9-0.7-65.9-4.8-133.5-7.2-169.5 5.2 0.2 10.3 0.2 15.3 0.2 28.6 0 52.7-2.7 71.6-7.9 41.6-11.5 52.6-34.6 54.6-52 2.3-20.4-8.5-46.2-33.9-81.2-20.4-28.1-50.6-62.1-87.2-98.3-74.9-74.1-171.7-152.5-258.8-209.7-14-9.1-31.5-14.1-49.6-14.1z" fill="#1296db" p-id="3675"></path><path d="M365.9 291.1c-3 0-6-1.1-8.4-3.4-4.8-4.6-4.9-12.2-0.3-17l72.3-75c4.6-4.8 12.2-4.9 17-0.3 4.8 4.6 4.9 12.2 0.3 17l-72.3 75c-2.2 2.4-5.4 3.7-8.6 3.7zM311.2 343.1c-2.9 0-5.7-1-8-3.1-5-4.4-5.4-12-1-17l11.3-12.6c4.4-5 12-5.4 17-0.9 5 4.4 5.4 12 1 17l-11.3 12.6c-2.4 2.7-5.7 4-9 4z" fill="#1296db" p-id="3676"></path></svg>